# xmcd
#
# Track frame offsets:
#	151
#	14154
#	36180
#	52841
#	67085
#	87801
#	116726
#	133972
#	149033
#	168000
#	180699
#	195390
#	211668
#	236561
#	251691
#	280972
#	301511
#
# Disc length: 4241 seconds
#
# Revision: 0
# Processed by: cddbd v1.5.2PL0 Copyright (c) Steve Scherf et al.
# Submitted via: dBpowerAMP V4.0
#
DISCID=f3108f11
DTITLE=Best of the soul show - Best of the soul show CD1
DYEAR=1900
DGENRE=Soul
TTITLE0=Johnny Pate - Shaft in Amerika
TTITLE1=Staple singers - Respect yourself
TTITLE2=Chi Lites - Give more power to the people
TTITLE3=Spinners - I'll be around
TTITLE4=Timmy thomas - Why can't we live together
TTITLE5=Harold Melvin and The blue notes - The love is lost
TTITLE6=Johnny Bristol - Hang on in there baby
TTITLE7=BT ExpressDo it
TTITLE8=Blackbirds - Walking in rhythem
TTITLE9=Nathalie Cole - This will be
TTITLE10=Stylistics - Can't give you anything but my love
TTITLE11=Imperials - Who's gonna love me
TTITLE12=Taste of honey - Bogie oogie oogie
TTITLE13=Ray Parker Jr and Radio - You can't change that
TTITLE14=G Q - Disco nights (remix) 12"
TTITLE15=Asford and Simson - Street corner
TTITLE16=Forcast - Happy days
EXTD=
EXTT0=
EXTT1=
EXTT2=
EXTT3=
EXTT4=
EXTT5=
EXTT6=
EXTT7=
EXTT8=
EXTT9=
EXTT10=
EXTT11=
EXTT12=
EXTT13=
EXTT14=
EXTT15=
EXTT16=
PLAYORDER=
